<mxfile host="www.draw.io" modified="2019-11-10T23:39:38.987Z" agent="Mozilla/5.0 (Windows NT 10.0; Win64; x64) AppleWebKit/537.36 (KHTML, like Gecko) Chrome/77.0.3865.120 Safari/537.36" etag="nsKRyXqzv6yF4bY589SY" version="12.1.7" type="github" pages="1">
  <diagram id="9hCFB_BsOprCfilMQbIW" name="Page-1">
    <mxGraphModel dx="1521" dy="1057" grid="1" gridSize="10" guides="1" tooltips="1" connect="1" arrows="1" fold="1" page="0" pageScale="1" pageWidth="850" pageHeight="1100" math="0" shadow="0">
      <root>
        <mxCell id="0"/>
        <mxCell id="1" parent="0"/>
        <mxCell id="4trU9mY8yc-2ncthCHFI-13" value="&lt;b&gt;Dados de treino&lt;br&gt;2.2.3&lt;br&gt;&lt;/b&gt;" style="shape=parallelogram;perimeter=parallelogramPerimeter;whiteSpace=wrap;html=1;strokeWidth=2;fillColor=#ffffff;fontSize=12;size=0.12631578947368421;" parent="1" vertex="1">
          <mxGeometry x="-60" y="-120" width="140" height="60" as="geometry"/>
        </mxCell>
        <mxCell id="4trU9mY8yc-2ncthCHFI-41" value="&lt;b&gt;Inicia o modelo RF com parâmetros iniciais&lt;br&gt;2.2.3&lt;/b&gt;" style="rounded=0;whiteSpace=wrap;html=1;strokeWidth=2;fillColor=#ffffff;fontSize=12;align=center;" parent="1" vertex="1">
          <mxGeometry x="130" y="-120" width="120" height="60" as="geometry"/>
        </mxCell>
        <mxCell id="4trU9mY8yc-2ncthCHFI-42" value="" style="endArrow=classic;html=1;strokeWidth=2;fontSize=12;exitX=1;exitY=0.5;exitDx=0;exitDy=0;entryX=0;entryY=0.5;entryDx=0;entryDy=0;" parent="1" source="4trU9mY8yc-2ncthCHFI-13" target="4trU9mY8yc-2ncthCHFI-41" edge="1">
          <mxGeometry width="50" height="50" relative="1" as="geometry">
            <mxPoint x="-80" y="10" as="sourcePoint"/>
            <mxPoint x="-30" y="-40" as="targetPoint"/>
          </mxGeometry>
        </mxCell>
        <mxCell id="4trU9mY8yc-2ncthCHFI-43" value="" style="endArrow=classic;html=1;strokeWidth=2;fontSize=12;exitX=1;exitY=0.5;exitDx=0;exitDy=0;" parent="1" source="4trU9mY8yc-2ncthCHFI-41" edge="1">
          <mxGeometry width="50" height="50" relative="1" as="geometry">
            <mxPoint x="260" y="-90" as="sourcePoint"/>
            <mxPoint x="310" y="-90" as="targetPoint"/>
          </mxGeometry>
        </mxCell>
        <mxCell id="4trU9mY8yc-2ncthCHFI-44" value="&lt;b&gt;Treina o modelo RF 2.2.3&lt;/b&gt;" style="rounded=0;whiteSpace=wrap;html=1;strokeWidth=2;fillColor=#ffffff;fontSize=12;align=center;" parent="1" vertex="1">
          <mxGeometry x="310" y="-120" width="120" height="60" as="geometry"/>
        </mxCell>
        <mxCell id="4trU9mY8yc-2ncthCHFI-45" value="&lt;b&gt;Está ocorrendo &lt;i&gt;overfitting&lt;/i&gt;?&lt;/b&gt;" style="rhombus;whiteSpace=wrap;html=1;strokeWidth=2;fillColor=#ffffff;fontSize=12;align=center;" parent="1" vertex="1">
          <mxGeometry x="310" y="-5" width="120" height="90" as="geometry"/>
        </mxCell>
        <mxCell id="4trU9mY8yc-2ncthCHFI-46" value="" style="endArrow=classic;html=1;strokeWidth=2;fontSize=12;exitX=0;exitY=0.5;exitDx=0;exitDy=0;entryX=0.5;entryY=1;entryDx=0;entryDy=0;" parent="1" source="4trU9mY8yc-2ncthCHFI-45" target="4trU9mY8yc-2ncthCHFI-41" edge="1">
          <mxGeometry width="50" height="50" relative="1" as="geometry">
            <mxPoint x="300" y="25" as="sourcePoint"/>
            <mxPoint x="350" y="-25" as="targetPoint"/>
            <Array as="points">
              <mxPoint x="190" y="40"/>
            </Array>
          </mxGeometry>
        </mxCell>
        <mxCell id="4trU9mY8yc-2ncthCHFI-47" value="&lt;b&gt;Avalia a performance da classificação com leave one out&lt;br&gt;2.2.3&lt;/b&gt;" style="rounded=0;whiteSpace=wrap;html=1;strokeWidth=2;fillColor=#ffffff;fontSize=12;align=center;" parent="1" vertex="1">
          <mxGeometry x="510" y="-125" width="140" height="70" as="geometry"/>
        </mxCell>
        <mxCell id="4trU9mY8yc-2ncthCHFI-48" value="&lt;b&gt;Yes&lt;/b&gt;" style="text;html=1;resizable=0;points=[];autosize=1;align=left;verticalAlign=top;spacingTop=-4;fontSize=12;" parent="1" vertex="1">
          <mxGeometry x="240" y="20" width="40" height="20" as="geometry"/>
        </mxCell>
        <mxCell id="4trU9mY8yc-2ncthCHFI-49" value="&lt;b&gt;&lt;span style=&quot;font-size: 11px&quot;&gt;O modelo é bom o suficiente para prever novas proteínas?&lt;/span&gt;&lt;br&gt;&lt;/b&gt;" style="rhombus;whiteSpace=wrap;html=1;strokeWidth=2;fillColor=#ffffff;fontSize=12;align=center;" parent="1" vertex="1">
          <mxGeometry x="520" y="-10" width="150" height="100" as="geometry"/>
        </mxCell>
        <mxCell id="4trU9mY8yc-2ncthCHFI-50" value="" style="endArrow=classic;html=1;strokeWidth=2;fontSize=12;exitX=0;exitY=0.5;exitDx=0;exitDy=0;entryX=1;entryY=0.5;entryDx=0;entryDy=0;" parent="1" source="4trU9mY8yc-2ncthCHFI-49" target="4trU9mY8yc-2ncthCHFI-45" edge="1">
          <mxGeometry width="50" height="50" relative="1" as="geometry">
            <mxPoint x="520" y="25" as="sourcePoint"/>
            <mxPoint x="570" y="-25" as="targetPoint"/>
          </mxGeometry>
        </mxCell>
        <mxCell id="4trU9mY8yc-2ncthCHFI-51" value="&lt;b&gt;Yes&lt;/b&gt;" style="text;html=1;resizable=0;points=[];autosize=1;align=left;verticalAlign=top;spacingTop=-4;fontSize=12;" parent="1" vertex="1">
          <mxGeometry x="470" y="20" width="40" height="20" as="geometry"/>
        </mxCell>
        <mxCell id="4trU9mY8yc-2ncthCHFI-52" value="" style="endArrow=classic;html=1;strokeWidth=2;fontSize=12;exitX=1;exitY=0.5;exitDx=0;exitDy=0;entryX=0;entryY=0.5;entryDx=0;entryDy=0;" parent="1" source="4trU9mY8yc-2ncthCHFI-44" target="4trU9mY8yc-2ncthCHFI-47" edge="1">
          <mxGeometry width="50" height="50" relative="1" as="geometry">
            <mxPoint x="460" y="-120" as="sourcePoint"/>
            <mxPoint x="499" y="-150" as="targetPoint"/>
          </mxGeometry>
        </mxCell>
        <mxCell id="4trU9mY8yc-2ncthCHFI-53" value="" style="endArrow=classic;html=1;strokeWidth=2;fontSize=12;exitX=0.5;exitY=1;exitDx=0;exitDy=0;entryX=0.5;entryY=0;entryDx=0;entryDy=0;" parent="1" source="4trU9mY8yc-2ncthCHFI-45" target="4trU9mY8yc-2ncthCHFI-57" edge="1">
          <mxGeometry width="50" height="50" relative="1" as="geometry">
            <mxPoint x="-70" y="155" as="sourcePoint"/>
            <mxPoint x="370" y="135" as="targetPoint"/>
          </mxGeometry>
        </mxCell>
        <mxCell id="4trU9mY8yc-2ncthCHFI-54" value="" style="endArrow=classic;html=1;strokeWidth=2;fontSize=12;exitX=0.5;exitY=0;exitDx=0;exitDy=0;entryX=0.75;entryY=1;entryDx=0;entryDy=0;" parent="1" source="4trU9mY8yc-2ncthCHFI-49" target="4trU9mY8yc-2ncthCHFI-41" edge="1">
          <mxGeometry width="50" height="50" relative="1" as="geometry">
            <mxPoint x="380" y="150" as="sourcePoint"/>
            <mxPoint x="380" y="200" as="targetPoint"/>
            <Array as="points">
              <mxPoint x="595" y="-30"/>
              <mxPoint x="220" y="-30"/>
            </Array>
          </mxGeometry>
        </mxCell>
        <mxCell id="4trU9mY8yc-2ncthCHFI-55" value="&lt;b&gt;No&lt;/b&gt;" style="text;html=1;resizable=0;points=[];autosize=1;align=left;verticalAlign=top;spacingTop=-4;fontSize=12;" parent="1" vertex="1">
          <mxGeometry x="540" y="-10" width="30" height="20" as="geometry"/>
        </mxCell>
        <mxCell id="4trU9mY8yc-2ncthCHFI-56" value="&lt;b&gt;No&lt;/b&gt;" style="text;html=1;resizable=0;points=[];autosize=1;align=left;verticalAlign=top;spacingTop=-4;fontSize=12;" parent="1" vertex="1">
          <mxGeometry x="370" y="85" width="30" height="20" as="geometry"/>
        </mxCell>
        <mxCell id="4trU9mY8yc-2ncthCHFI-57" value="&lt;b&gt;Modelo ajustado&lt;br&gt;&lt;/b&gt;" style="shape=parallelogram;perimeter=parallelogramPerimeter;whiteSpace=wrap;html=1;strokeWidth=2;fillColor=#ffffff;fontSize=12;size=0.12631578947368421;" parent="1" vertex="1">
          <mxGeometry x="305" y="115" width="130" height="50" as="geometry"/>
        </mxCell>
        <mxCell id="eSzrCJ54clSV5uN7bJGZ-1" value="" style="endArrow=classic;html=1;exitX=1;exitY=0.5;exitDx=0;exitDy=0;entryX=1;entryY=0.5;entryDx=0;entryDy=0;fontStyle=1;strokeWidth=2;" edge="1" parent="1" source="4trU9mY8yc-2ncthCHFI-47" target="4trU9mY8yc-2ncthCHFI-49">
          <mxGeometry width="50" height="50" relative="1" as="geometry">
            <mxPoint x="-80" y="310" as="sourcePoint"/>
            <mxPoint x="-30" y="260" as="targetPoint"/>
            <Array as="points">
              <mxPoint x="700" y="-90"/>
              <mxPoint x="700" y="40"/>
            </Array>
          </mxGeometry>
        </mxCell>
        <mxCell id="eSzrCJ54clSV5uN7bJGZ-2" value="" style="endArrow=classic;html=1;strokeWidth=2;fontSize=12;entryX=0;entryY=0.5;entryDx=0;entryDy=0;exitX=1;exitY=0.5;exitDx=0;exitDy=0;" edge="1" parent="1" source="eSzrCJ54clSV5uN7bJGZ-5" target="eSzrCJ54clSV5uN7bJGZ-4">
          <mxGeometry width="50" height="50" relative="1" as="geometry">
            <mxPoint x="390" y="165" as="sourcePoint"/>
            <mxPoint x="370" y="205" as="targetPoint"/>
          </mxGeometry>
        </mxCell>
        <mxCell id="eSzrCJ54clSV5uN7bJGZ-4" value="&lt;b&gt;Dados classificados&lt;br&gt;2.2.3&lt;br&gt;&lt;/b&gt;" style="shape=parallelogram;perimeter=parallelogramPerimeter;whiteSpace=wrap;html=1;strokeWidth=2;fillColor=#ffffff;fontSize=12;size=0.12631578947368421;" vertex="1" parent="1">
          <mxGeometry x="520" y="190" width="150" height="60" as="geometry"/>
        </mxCell>
        <mxCell id="eSzrCJ54clSV5uN7bJGZ-5" value="&lt;b&gt;Aplica o modelo nos dados de classificação&lt;/b&gt;" style="rounded=0;whiteSpace=wrap;html=1;strokeWidth=2;fillColor=#ffffff;fontSize=12;align=center;" vertex="1" parent="1">
          <mxGeometry x="310" y="190" width="120" height="60" as="geometry"/>
        </mxCell>
        <mxCell id="eSzrCJ54clSV5uN7bJGZ-9" value="" style="endArrow=classic;html=1;strokeWidth=2;fontSize=12;entryX=0.5;entryY=0;entryDx=0;entryDy=0;exitX=0.5;exitY=1;exitDx=0;exitDy=0;" edge="1" parent="1" source="4trU9mY8yc-2ncthCHFI-57" target="eSzrCJ54clSV5uN7bJGZ-5">
          <mxGeometry width="50" height="50" relative="1" as="geometry">
            <mxPoint x="357.5" y="201.5" as="sourcePoint"/>
            <mxPoint x="232.5" y="234" as="targetPoint"/>
          </mxGeometry>
        </mxCell>
      </root>
    </mxGraphModel>
  </diagram>
</mxfile>
